<svg xmlns="http://www.w3.org/2000/svg" xmlns:xlink="http://www.w3.org/1999/xlink" width="500" zoomAndPan="magnify" viewBox="0 0 375 374.999991" height="500" preserveAspectRatio="xMidYMid meet" version="1.0"><defs><filter x="0%" y="0%" width="100%" height="100%" id="94ffc25953"><feColorMatrix values="0 0 0 0 1 0 0 0 0 1 0 0 0 0 1 0 0 0 1 0" color-interpolation-filters="sRGB"/></filter><g/><clipPath id="22dcda225e"><path d="M 74.925781 33.578125 L 214.78125 33.578125 L 214.78125 266.664062 L 74.925781 266.664062 Z M 74.925781 33.578125 " clip-rule="nonzero"/></clipPath><clipPath id="b0a697686e"><path d="M 135.792969 34.921875 L 275.644531 34.921875 L 275.644531 268 L 135.792969 268 Z M 135.792969 34.921875 " clip-rule="nonzero"/></clipPath><mask id="dfaeab7f1e"><g filter="url(#94ffc25953)"><rect x="-37.5" width="450" fill="#000000" y="-37.499999" height="449.999989" fill-opacity="0.13"/></g></mask><clipPath id="1f2606cb64"><path d="M 0.335938 0.816406 L 140.191406 0.816406 L 140.191406 233.902344 L 0.335938 233.902344 Z M 0.335938 0.816406 " clip-rule="nonzero"/></clipPath><clipPath id="83c89af938"><rect x="0" width="141" y="0" height="236"/></clipPath><mask id="c807d2cfcb"><g filter="url(#94ffc25953)"><rect x="-37.5" width="450" fill="#000000" y="-37.499999" height="449.999989" fill-opacity="0.13"/></g></mask><clipPath id="87ea709bcb"><path d="M 1.203125 2.160156 L 141.054688 2.160156 L 141.054688 235.246094 L 1.203125 235.246094 Z M 1.203125 2.160156 " clip-rule="nonzero"/></clipPath><clipPath id="3d69c76360"><rect x="0" width="142" y="0" height="236"/></clipPath><clipPath id="eee9e2e364"><path d="M 160.207031 290.65625 L 181.722656 290.65625 L 181.722656 326 L 160.207031 326 Z M 160.207031 290.65625 " clip-rule="nonzero"/></clipPath><clipPath id="4526d4d866"><path d="M 169 290.039062 L 190.355469 290.039062 L 190.355469 325.898438 L 169 325.898438 Z M 169 290.039062 " clip-rule="nonzero"/></clipPath><mask id="3d0dbe9451"><g filter="url(#94ffc25953)"><rect x="-37.5" width="450" fill="#000000" y="-37.499999" height="449.999989" fill-opacity="0.13"/></g></mask><clipPath id="f49c7d1249"><path d="M 0.878906 0.496094 L 22 0.496094 L 22 35.839844 L 0.878906 35.839844 Z M 0.878906 0.496094 " clip-rule="nonzero"/></clipPath><clipPath id="41e2e899dd"><rect x="0" width="23" y="0" height="36"/></clipPath><mask id="bdd4bd9c5b"><g filter="url(#94ffc25953)"><rect x="-37.5" width="450" fill="#000000" y="-37.499999" height="449.999989" fill-opacity="0.13"/></g></mask><clipPath id="e9fec0c5ab"><path d="M 0.800781 0.320312 L 22.027344 0.320312 L 22.027344 35.742188 L 0.800781 35.742188 Z M 0.800781 0.320312 " clip-rule="nonzero"/></clipPath><clipPath id="9848e107e4"><rect x="0" width="23" y="0" height="36"/></clipPath></defs><g clip-path="url(#22dcda225e)"><path fill="#040404" d="M 74.921875 33.6875 L 74.953125 150.789062 L 74.988281 267.886719 C 121.753906 267.816406 168.519531 267.746094 215.285156 267.679688 C 168.496094 189.683594 121.710938 111.683594 74.921875 33.6875 " fill-opacity="1" fill-rule="nonzero"/></g><g clip-path="url(#b0a697686e)"><path fill="#040404" d="M 275.648438 267.898438 L 275.617188 150.796875 L 275.582031 33.699219 C 228.816406 33.769531 182.050781 33.839844 135.285156 33.90625 C 182.074219 111.90625 228.863281 189.902344 275.648438 267.898438 " fill-opacity="1" fill-rule="nonzero"/></g><g mask="url(#dfaeab7f1e)"><g transform="matrix(1, 0, 0, 1, 99, 45)"><g clip-path="url(#83c89af938)"><g clip-path="url(#1f2606cb64)"><path fill="#040404" d="M 0.332031 0.925781 L 0.363281 118.023438 L 0.398438 235.125 C 47.164062 235.054688 93.929688 234.984375 140.695312 234.917969 C 93.90625 156.917969 47.121094 78.921875 0.332031 0.925781 " fill-opacity="1" fill-rule="nonzero"/></g></g></g></g><g mask="url(#c807d2cfcb)"><g transform="matrix(1, 0, 0, 1, 159, 45)"><g clip-path="url(#3d69c76360)"><g clip-path="url(#87ea709bcb)"><path fill="#040404" d="M 141.058594 235.136719 L 141.027344 118.035156 L 140.992188 0.9375 C 94.226562 1.007812 47.460938 1.078125 0.695312 1.144531 C 47.484375 79.140625 94.273438 157.140625 141.058594 235.136719 " fill-opacity="1" fill-rule="nonzero"/></g></g></g></g><g clip-path="url(#eee9e2e364)"><path fill="#040404" d="M 160.207031 290.699219 L 160.210938 308.277344 L 160.214844 325.851562 C 167.234375 325.84375 174.253906 325.832031 181.273438 325.820312 C 174.253906 314.113281 167.230469 302.40625 160.207031 290.699219 " fill-opacity="1" fill-rule="nonzero"/></g><g clip-path="url(#4526d4d866)"><path fill="#040404" d="M 190.355469 325.855469 L 190.351562 308.277344 L 190.347656 290.703125 C 183.328125 290.710938 176.308594 290.722656 169.289062 290.734375 C 176.3125 302.441406 183.332031 314.148438 190.355469 325.855469 " fill-opacity="1" fill-rule="nonzero"/></g><g mask="url(#3d0dbe9451)"><g transform="matrix(1, 0, 0, 1, 163, 292)"><g clip-path="url(#41e2e899dd)"><g clip-path="url(#f49c7d1249)"><path fill="#040404" d="M 0.878906 0.542969 L 0.882812 18.117188 L 0.890625 35.695312 C 7.910156 35.683594 14.929688 35.671875 21.949219 35.664062 C 14.925781 23.957031 7.902344 12.25 0.878906 0.542969 " fill-opacity="1" fill-rule="nonzero"/></g></g></g></g><g mask="url(#bdd4bd9c5b)"><g transform="matrix(1, 0, 0, 1, 172, 292)"><g clip-path="url(#9848e107e4)"><g clip-path="url(#e9fec0c5ab)"><path fill="#040404" d="M 22.027344 35.695312 L 22.023438 18.121094 L 22.019531 0.542969 C 15 0.554688 7.980469 0.5625 0.960938 0.574219 C 7.984375 12.28125 15.007812 23.988281 22.027344 35.695312 " fill-opacity="1" fill-rule="nonzero"/></g></g></g></g><g fill="#000000" fill-opacity="1"><g transform="translate(91.904777, 327.217431)"><g><path d="M 32.90625 -36.0625 L 15.03125 -7.21875 L 31.734375 -7.21875 L 31.734375 0 L 0.703125 0 L 18.53125 -28.84375 L 3.234375 -28.84375 L 3.234375 -36.0625 Z M 32.90625 -36.0625 "/></g></g></g><g fill="#000000" fill-opacity="1"><g transform="translate(128.794697, 327.217431)"><g><path d="M 23.25 -36.0625 L 23.25 -28.84375 L 10.84375 -28.84375 L 10.84375 -21.671875 L 22.71875 -21.671875 L 22.71875 -14.46875 L 10.84375 -14.46875 L 10.84375 -7.21875 L 23.25 -7.21875 L 23.25 0 L 2.625 0 L 2.625 -36.0625 Z M 23.25 -36.0625 "/></g></g></g><g fill="#000000" fill-opacity="1"><g transform="translate(197.912622, 326.656307)"><g><path d="M 10.84375 -36.0625 L 10.84375 0 L 2.625 0 L 2.625 -36.0625 Z M 10.84375 -36.0625 "/></g></g></g><g fill="#000000" fill-opacity="1"><g transform="translate(214.652958, 326.656307)"><g><path d="M 0.34375 -28.84375 L 0.34375 -36.0625 L 25.703125 -36.0625 L 25.703125 -28.84375 L 17.125 -28.84375 L 17.125 0 L 8.921875 0 L 8.921875 -28.84375 Z M 0.34375 -28.84375 "/></g></g></g><g fill="#000000" fill-opacity="1"><g transform="translate(243.981323, 326.656307)"><g><path d="M 10.84375 -14.46875 L 10.84375 0 L 2.625 0 L 2.625 -36.0625 L 10.84375 -36.0625 L 10.84375 -21.671875 L 22.46875 -21.671875 L 22.46875 -36.0625 L 30.671875 -36.0625 L 30.671875 0 L 22.46875 0 L 22.46875 -14.46875 Z M 10.84375 -14.46875 "/></g></g></g></svg>