<svg id="svg" version="1.1" xmlns="http://www.w3.org/2000/svg" xmlns:xlink="http://www.w3.org/1999/xlink" width="400" height="400" viewBox="0, 0, 400,400"><g id="svgg"><path id="path0" d="M174.024 165.547 C 174.024 165.780,203.342 214.403,203.740 214.830 C 203.872 214.972,203.967 204.638,203.967 190.198 L 203.967 165.323 188.996 165.323 C 180.610 165.323,174.024 165.422,174.024 165.547 M218.554 191.043 L 218.554 216.763 224.440 216.763 L 230.326 216.763 230.326 191.043 L 230.326 165.323 224.440 165.323 L 218.554 165.323 218.554 191.043 M239.283 170.437 L 239.283 175.551 245.361 175.619 L 251.440 175.688 251.505 196.225 L 251.571 216.763 257.327 216.763 L 263.084 216.763 263.084 196.161 L 263.084 175.560 269.226 175.560 L 275.368 175.560 275.368 170.441 L 275.368 165.323 257.326 165.323 L 239.283 165.323 239.283 170.437 M284.325 191.043 L 284.325 216.763 290.080 216.763 L 295.836 216.763 295.902 206.462 L 295.969 196.161 304.287 196.161 L 312.604 196.161 312.671 206.462 L 312.738 216.763 318.493 216.763 L 324.248 216.763 324.248 191.043 L 324.248 165.323 318.490 165.323 L 312.732 165.323 312.732 175.560 L 312.732 185.797 304.287 185.797 L 295.841 185.797 295.841 175.560 L 295.841 165.323 290.083 165.323 L 284.325 165.323 284.325 191.043 M68.330 171.209 L 68.330 176.328 79.207 176.328 C 85.189 176.328,90.083 176.383,90.083 176.451 C 90.083 176.548,67.949 212.449,65.379 216.520 L 64.741 217.530 86.881 217.530 L 109.021 217.530 109.021 212.412 L 109.021 207.294 97.121 207.294 C 90.576 207.294,85.221 207.243,85.221 207.182 C 85.221 207.120,90.842 197.994,97.713 186.900 C 104.584 175.807,110.292 166.587,110.396 166.411 C 110.548 166.156,106.292 166.091,89.458 166.091 L 68.330 166.091 68.330 171.209 M120.026 191.811 L 120.026 217.530 134.741 217.530 L 149.456 217.530 149.456 212.412 L 149.456 207.294 140.627 207.294 L 131.798 207.294 131.798 202.047 L 131.798 196.801 140.243 196.801 L 148.688 196.801 148.688 191.683 L 148.688 186.564 140.243 186.564 L 131.798 186.564 131.798 181.446 L 131.798 176.328 140.627 176.328 L 149.456 176.328 149.456 171.209 L 149.456 166.091 134.741 166.091 L 120.026 166.091 120.026 191.811 M161.228 190.864 L 161.228 215.739 176.343 215.739 C 184.656 215.739,191.405 215.653,191.342 215.547 C 189.391 212.302,166.694 174.757,164.615 171.337 C 162.990 168.663,161.563 166.365,161.444 166.232 C 161.326 166.098,161.228 177.182,161.228 190.864 " stroke="none" fill="#fafafa" fill-rule="evenodd"></path><path id="path1" d="M0.000 200.000 L 0.000 400.000 200.000 400.000 L 400.000 400.000 400.000 200.000 L 400.000 0.000 200.000 0.000 L 0.000 0.000 0.000 200.000 M204.223 166.603 L 204.223 167.882 206.782 167.882 L 209.341 167.882 209.341 193.019 C 209.341 214.042,209.285 218.074,209.000 217.651 C 208.812 217.374,207.690 215.534,206.505 213.564 L 204.351 209.981 204.223 212.796 C 204.098 215.529,204.082 215.592,203.667 214.971 C 202.898 213.820,173.768 165.567,173.768 165.444 C 173.768 165.377,180.621 165.323,188.996 165.323 L 204.223 165.323 204.223 166.603 M230.326 191.043 L 230.326 216.763 224.440 216.763 L 218.554 216.763 218.554 191.043 L 218.554 165.323 224.440 165.323 L 230.326 165.323 230.326 191.043 M275.368 170.569 L 275.368 175.816 269.354 175.816 L 263.340 175.816 263.340 196.289 L 263.340 216.763 257.326 216.763 L 251.312 216.763 251.312 196.294 L 251.312 175.825 245.234 175.756 L 239.155 175.688 239.086 170.505 L 239.017 165.323 257.192 165.323 L 275.368 165.323 275.368 170.569 M296.097 175.560 L 296.097 185.797 304.287 185.797 L 312.476 185.797 312.476 175.560 L 312.476 165.323 318.490 165.323 L 324.504 165.323 324.504 191.043 L 324.504 216.763 318.490 216.763 L 312.476 216.763 312.476 206.526 L 312.476 196.289 304.287 196.289 L 296.097 196.289 296.097 206.526 L 296.097 216.763 290.083 216.763 L 284.069 216.763 284.069 191.213 C 284.069 177.161,284.146 165.588,284.240 165.494 C 284.334 165.400,287.040 165.323,290.254 165.323 L 296.097 165.323 296.097 175.560 M163.817 169.854 L 166.219 173.885 166.347 171.111 L 166.475 168.336 181.446 193.093 C 189.680 206.709,196.456 217.951,196.502 218.074 C 196.551 218.201,190.010 218.298,181.467 218.298 L 166.347 218.298 166.347 217.019 L 166.347 215.739 163.660 215.739 L 160.972 215.739 160.972 190.644 C 160.972 176.588,161.070 165.609,161.194 165.686 C 161.316 165.761,162.496 167.637,163.817 169.854 M110.482 166.427 C 110.411 166.613,104.755 175.797,97.913 186.837 L 85.472 206.910 97.247 206.976 L 109.021 207.043 109.021 212.287 L 109.021 217.530 86.884 217.530 C 74.709 217.530,64.747 217.483,64.747 217.425 C 64.747 217.368,70.395 208.183,77.298 197.016 L 89.849 176.711 79.090 176.645 L 68.330 176.578 68.330 171.334 L 68.330 166.091 89.471 166.091 C 106.839 166.091,110.588 166.151,110.482 166.427 M149.456 171.337 L 149.456 176.583 140.627 176.583 L 131.798 176.583 131.798 181.574 L 131.798 186.564 140.243 186.564 L 148.688 186.564 148.688 191.811 L 148.688 197.057 140.243 197.057 L 131.798 197.057 131.798 202.047 L 131.798 207.038 140.627 207.038 L 149.456 207.038 149.456 212.284 L 149.456 217.530 134.741 217.530 L 120.026 217.530 120.026 191.811 L 120.026 166.091 134.741 166.091 L 149.456 166.091 149.456 171.337 " stroke="none" fill="#040404" fill-rule="evenodd"></path><path id="path2" d="M239.147 170.505 L 239.155 175.688 245.298 175.695 L 251.440 175.702 245.367 175.626 L 239.294 175.551 239.217 170.437 L 239.139 165.323 239.147 170.505 M324.371 191.043 C 324.371 205.259,324.402 211.112,324.440 204.050 C 324.478 196.988,324.478 185.357,324.440 178.202 C 324.402 171.048,324.371 176.827,324.371 191.043 M161.096 190.659 C 161.096 204.523,161.126 210.195,161.164 203.263 C 161.202 196.331,161.202 184.987,161.164 178.055 C 161.126 171.123,161.096 176.795,161.096 190.659 M284.192 191.171 C 284.192 205.317,284.223 211.104,284.261 204.031 C 284.299 196.958,284.299 185.384,284.261 178.311 C 284.223 171.238,284.192 177.025,284.192 191.171 M204.223 188.828 L 204.223 209.774 206.683 213.844 C 208.037 216.083,209.188 217.962,209.242 218.021 C 209.297 218.080,209.341 206.822,209.341 193.005 L 209.341 167.882 206.782 167.882 L 204.223 167.882 204.223 188.828 M166.299 171.193 C 166.246 173.063,166.318 174.151,166.508 174.354 C 166.866 174.738,191.427 215.380,191.427 215.588 C 191.427 215.671,185.784 215.739,178.887 215.739 L 166.347 215.739 166.347 217.019 L 166.347 218.298 181.446 218.298 C 189.750 218.298,196.545 218.249,196.545 218.189 C 196.545 218.068,166.682 168.644,166.497 168.459 C 166.432 168.394,166.343 169.625,166.299 171.193 M263.202 175.880 C 263.134 176.056,263.110 185.355,263.147 196.545 L 263.215 216.891 263.277 196.358 L 263.340 175.825 269.418 175.752 L 275.496 175.678 269.410 175.619 C 264.732 175.574,263.295 175.634,263.202 175.880 M73.786 176.519 C 76.857 176.560,81.809 176.560,84.790 176.519 C 87.772 176.478,85.259 176.445,79.207 176.445 C 73.154 176.445,70.715 176.478,73.786 176.519 M136.068 176.519 C 138.487 176.561,142.518 176.561,145.025 176.519 C 147.533 176.477,145.553 176.443,140.627 176.443 C 135.701 176.443,133.649 176.477,136.068 176.519 M91.188 207.230 C 94.541 207.270,99.954 207.270,103.217 207.229 C 106.479 207.189,103.736 207.156,97.121 207.156 C 90.505 207.156,87.836 207.189,91.188 207.230 M136.068 207.229 C 138.487 207.271,142.518 207.271,145.025 207.229 C 147.533 207.187,145.553 207.153,140.627 207.153 C 135.701 207.153,133.649 207.187,136.068 207.229 " stroke="none" fill="#5a5a5a" fill-rule="evenodd"></path><path id="path3" d="M204.043 166.603 C 204.043 167.377,204.091 167.694,204.150 167.306 C 204.209 166.919,204.209 166.286,204.150 165.899 C 204.091 165.512,204.043 165.829,204.043 166.603 M300.128 196.225 C 302.415 196.267,306.158 196.267,308.445 196.225 C 310.733 196.182,308.861 196.148,304.287 196.148 C 299.712 196.148,297.841 196.182,300.128 196.225 M135.956 196.993 C 138.314 197.035,142.172 197.035,144.530 196.993 C 146.887 196.950,144.958 196.916,140.243 196.916 C 135.528 196.916,133.599 196.950,135.956 196.993 M204.064 212.668 C 204.064 214.287,204.105 214.949,204.156 214.139 C 204.207 213.330,204.207 212.006,204.156 211.196 C 204.105 210.387,204.064 211.049,204.064 212.668 " stroke="none" fill="#747474" fill-rule="evenodd"></path><path id="path4" d="M295.958 175.560 C 295.958 181.260,295.992 183.592,296.033 180.742 C 296.074 177.892,296.074 173.228,296.033 170.377 C 295.992 167.527,295.958 169.859,295.958 175.560 M312.593 175.560 C 312.593 181.260,312.626 183.592,312.668 180.742 C 312.709 177.892,312.709 173.228,312.668 170.377 C 312.626 167.527,312.593 169.859,312.593 175.560 M204.089 188.868 C 204.089 200.480,204.120 205.230,204.159 199.424 C 204.197 193.618,204.197 184.117,204.159 178.311 C 204.120 172.505,204.089 177.255,204.089 188.868 M251.434 196.289 C 251.434 207.620,251.465 212.255,251.503 206.590 C 251.542 200.925,251.542 191.654,251.503 185.988 C 251.465 180.323,251.434 184.958,251.434 196.289 M295.958 206.526 C 295.958 212.226,295.992 214.559,296.033 211.708 C 296.074 208.858,296.074 204.194,296.033 201.344 C 295.992 198.493,295.958 200.825,295.958 206.526 M312.593 206.526 C 312.593 212.226,312.626 214.559,312.668 211.708 C 312.709 208.858,312.709 204.194,312.668 201.344 C 312.626 198.493,312.593 200.825,312.593 206.526 " stroke="none" fill="#7c7c7c" fill-rule="evenodd"></path></g></svg>