<?xml version="1.0"?><svg version="1.2" baseProfile="tiny-ps" viewBox="0 0 300 300" xmlns="http://www.w3.org/2000/svg" xmlns:xlink="http://www.w3.org/1999/xlink"><title>Zenith</title><g><g fill="#fff" transform="matrix(.1 0 0 -.1 0 300)"><path d="M0 1500V0h3000v3000H0V1500z"/></g><g fill="#ccc" transform="matrix(.1 0 0 -.1 0 300)"><path d="M0 1500V0h3000v3000H0V1500zm1530 78c0-100-2-179-4-177-5 5-195 318-207 341l-10 18h221v-182zm190-8v-190h-80v380h80v-190zm340 155v-35h-90v-310h-80v310h-90v70h260v-35zm160-45v-80h130v160h80v-380h-80v150h-130v-150h-80v380h80v-80zm-1406 58c-4-7-43-70-86-139-43-70-81-134-84-143l-6-16h172v-70H490l52 83c28 45 71 114 94 152l43 70-80 3-79 3v69h301l-7-12zm306-23v-35H980v-80h130v-69l-62-3-63-3v-80l68-3 67-3v-69H900v380h220v-35zm205-157c52-86 95-159 95-162s-47-6-105-6h-105v355l10-15c6-8 53-85 105-172z"/></g><g fill="#9f9f9f" transform="matrix(.1 0 0 -.1 0 300)"><path d="M0 1500V0h3000v3000H0V1500zm1530 78v-182l-9 10c-11 12-211 343-211 349 0 3 50 5 110 5h110v-182zm190-8v-190h-80v380h80v-190zm340 150v-40h-90v-300h-80v300h-90v80h260v-40zm160-40v-81l63 3 62 3 3 78 3 77h79v-380h-80v150h-130v-150h-90v380h90v-80zm-1400 65c0-3-40-70-90-149-49-79-90-146-90-150 0-3 38-6 85-6h85v-70H488l23 38c13 20 54 86 91 146 38 60 68 113 68 118v8H520v70h150c83 0 150-2 150-5zm300-30v-35H990v-80h120v-70H990v-90h130v-70H900v380h220v-35zm204-149c58-95 106-176 106-180 0-3-49-6-110-6h-110v180c0 99 2 180 4 180s52-78 110-174z"/></g><g fill="#606060" transform="matrix(.1 0 0 -.1 0 300)"><path d="M0 1500V0h3000v3000H0V1500zm1530 73v-187l-43 69c-92 150-177 293-177 299 0 3 50 6 110 6h110v-187zm198-5-3-193-42-3-43-3v391h90l-2-192zm340 155-3-38-47-3-48-3v-309h-80v309l-47 3-48 3-3 38-3 37h282l-3-37zm152-38v-75h120v150h90v-391l-42 3-43 3-3 78-3 77h-119v-161l-42 3-43 3-3 193-2 192h90v-75zm-1403 53c-2-7-43-75-90-150l-85-137 86-3 87-3 3-37 3-38H489l12 23c7 12 46 75 86 141 41 65 77 124 80 132l5 14H510v70h312l-5-12zm303-23v-35H990v-80h131l-3-37-3-38-62-3-63-3v-69h130v-80H900v380h220v-35zm228-182 91-153h-229v373l23-34c13-19 64-103 115-186z"/></g><g fill="#2f2f2f" transform="matrix(.1 0 0 -.1 0 300)"><path d="M0 1500V0h3000v3000H0V1500zm830 255c0-2-40-70-90-149-49-80-90-148-90-151s38-5 85-5h85v-80H490l1 8c0 4 40 70 88 147l88 140-76 5-76 5-3 28c-2 16-1 35 2 43l5 14h156c85 0 155-2 155-5zm290-40v-45H990v-70h130v-80H990v-70h130v-80H900v390h220v-45zm410 35v-10h40v-365l-19 24-19 25-3-18-4-17-112 185-113 186h230v-10zm200-185v-195h-90v390h90v-195zm340 155v-40h-89l-3-152-3-153h-90l-3 153-3 152h-89v80h280v-40zm150-35v-75h120v150h90v-390h-90v160h-120v-160h-90v390h90v-75zm-968 25 3 11 103-169c56-93 102-172 102-176 0-8-178-8-219 0l-31 7v372l19-28 19-29 4 12z"/></g><g transform="matrix(.1 0 0 -.1 0 300)"><path d="M0 1500V0h3000v3000H0V1500zm827 247c-3-7-44-76-91-152l-87-140 86-3 86-3-3-42-3-42-155-3c-85-1-160 0-167 2l-12 5 86 138c47 76 88 144 90 151l5 12H510v90h322l-5-13zm293-32v-45H990v-70h130v-80H990v-70h130v-90H900v400h220v-45zm129 3 6 11 108-177c59-97 107-180 107-185v-7h-220v20h-38l-4 183c-2 100-2 186 1 191l4 9 15-28 14-28 7 11zm281 32v-10h40v-375l-19 24-18 24-5-14-4-13-99 164c-54 91-105 175-113 188l-14 22h232v-10zm200-185v-195h-90v390h90v-195zm340 155v-40h-90v-310h-100v310h-90v80h280v-40zm150-35v-75h120v150h100v-390h-100v150h-120v-150h-90v390h90v-75z"/></g></g></svg>